<svg width="86" height="80" viewBox="0 0 86 80" fill="none" xmlns="http://www.w3.org/2000/svg">
<path d="M77.509 54.8359H27.4963L30.0074 50.0781L71.7309 50.0078C73.1418 50.0078 74.3512 49.0703 74.6031 47.7734L80.3813 17.6875C80.5324 16.8984 80.3057 16.0859 79.7514 15.4688C79.4774 15.165 79.1357 14.9203 78.7499 14.7517C78.3642 14.5831 77.9436 14.4945 77.5174 14.4922L24.4393 14.3281L23.9857 12.3438C23.7002 11.0781 22.474 10.1562 21.0799 10.1562H8.1043C7.31802 10.1563 6.56395 10.4468 6.00797 10.964C5.45199 11.4812 5.13965 12.1826 5.13965 12.9141C5.13965 13.6455 5.45199 14.3469 6.00797 14.8641C6.56395 15.3813 7.31802 15.6719 8.1043 15.6719H18.6779L20.66 24.4375L25.5395 46.4141L19.2574 55.9531C18.9312 56.3627 18.7347 56.8491 18.6902 57.3572C18.6456 57.8652 18.7549 58.3748 19.0055 58.8281C19.5094 59.7578 20.5256 60.3438 21.651 60.3438H26.9252C25.8008 61.733 25.1935 63.4251 25.1951 65.1641C25.1951 69.5859 29.0584 73.1797 33.8119 73.1797C38.5654 73.1797 42.4287 69.5859 42.4287 65.1641C42.4287 63.4219 41.8072 61.7266 40.6986 60.3438H54.2285C53.1041 61.733 52.4968 63.4251 52.4984 65.1641C52.4984 69.5859 56.3617 73.1797 61.1152 73.1797C65.8688 73.1797 69.732 69.5859 69.732 65.1641C69.732 63.4219 69.1106 61.7266 68.002 60.3438H77.5174C79.1467 60.3438 80.482 59.1094 80.482 57.5859C80.4772 56.8553 80.1618 56.1561 79.6049 55.6409C79.0479 55.1257 78.2945 54.8363 77.509 54.8359ZM25.6738 19.7656L74.032 19.9141L69.2953 44.5859L31.3092 44.6484L25.6738 19.7656ZM33.8119 67.6328C32.3506 67.6328 31.158 66.5234 31.158 65.1641C31.158 63.8047 32.3506 62.6953 33.8119 62.6953C35.2732 62.6953 36.4658 63.8047 36.4658 65.1641C36.4658 65.8188 36.1862 66.4468 35.6885 66.9097C35.1908 67.3727 34.5158 67.6328 33.8119 67.6328ZM61.1152 67.6328C59.6539 67.6328 58.4613 66.5234 58.4613 65.1641C58.4613 63.8047 59.6539 62.6953 61.1152 62.6953C62.5766 62.6953 63.7691 63.8047 63.7691 65.1641C63.7691 65.8188 63.4895 66.4468 62.9918 66.9097C62.4941 67.3727 61.8191 67.6328 61.1152 67.6328Z" fill="white"/>
</svg>
