<svg width="56" height="58" viewBox="0 0 56 58" fill="none" xmlns="http://www.w3.org/2000/svg">
<path d="M39.2875 10.875C40.5616 10.8739 41.8231 11.1362 42.9981 11.6467C44.1731 12.1571 45.2378 12.9053 46.13 13.8475C47.9682 15.7803 48.9986 18.3845 48.9986 21.0975C48.9986 23.8105 47.9682 26.4147 46.13 28.3475L28 47.3606L9.86997 28.3475C8.03174 26.4147 7.00135 23.8105 7.00135 21.0975C7.00135 18.3845 8.03174 15.7803 9.86997 13.8475C10.7626 12.906 11.8275 12.1582 13.0023 11.6477C14.1772 11.1372 15.4384 10.8742 16.7125 10.8742C17.9865 10.8742 19.2478 11.1372 20.4226 11.6477C21.5975 12.1582 22.6623 12.906 23.555 13.8475L28 18.56L32.4275 13.8838C33.3169 12.9303 34.3828 12.1725 35.5615 11.6555C36.7402 11.1386 38.0075 10.8731 39.2875 10.875M39.2875 7.25C37.5473 7.24848 35.8244 7.6068 34.2197 8.30398C32.615 9.00115 31.1608 10.0231 29.9425 11.31L28 13.34L26.0575 11.31C24.8376 10.0255 23.3831 9.00525 21.7787 8.30885C20.1743 7.61245 18.4521 7.2538 16.7125 7.2538C14.9729 7.2538 13.2507 7.61245 11.6462 8.30885C10.0418 9.00525 8.58731 10.0255 7.36747 11.31C4.88576 13.9266 3.49524 17.4478 3.49524 21.1156C3.49524 24.7835 4.88576 28.3047 7.36747 30.9213L28 52.5625L48.6325 30.9213C51.1142 28.3047 52.5047 24.7835 52.5047 21.1156C52.5047 17.4478 51.1142 13.9266 48.6325 11.31C47.4129 10.0248 45.9586 9.00386 44.3541 8.3068C42.7497 7.60975 41.0273 7.2505 39.2875 7.25V7.25Z" fill="white"/>
</svg>
