<svg width="148" height="24" viewBox="0 0 148 24" fill="none" xmlns="http://www.w3.org/2000/svg">
<path d="M11.074 2.633C11.394 1.789 12.605 1.789 12.926 2.633L14.996 8.367C15.0682 8.55379 15.1953 8.71428 15.3607 8.8273C15.526 8.94031 15.7217 9.00053 15.922 9H21.009C21.949 9 22.359 10.17 21.62 10.743L18 14C17.8378 14.1247 17.7193 14.2975 17.6614 14.4937C17.6036 14.6898 17.6094 14.8993 17.678 15.092L19 20.695C19.322 21.595 18.28 22.368 17.492 21.814L12.575 18.694C12.4066 18.5757 12.2058 18.5122 12 18.5122C11.7941 18.5122 11.5933 18.5757 11.425 18.694L6.50795 21.814C5.72095 22.368 4.67795 21.594 4.99995 20.695L6.32195 15.092C6.39053 14.8993 6.39631 14.6898 6.33846 14.4937C6.28061 14.2975 6.16211 14.1247 5.99995 14L2.37995 10.743C1.63995 10.17 2.05195 9 2.98995 9H8.07695C8.27725 9.00067 8.47302 8.9405 8.63837 8.82747C8.80372 8.71444 8.93086 8.55387 9.00295 8.367L11.073 2.633H11.074Z" stroke="white" stroke-width="2" stroke-linecap="round" stroke-linejoin="round"/>
<path d="M42.074 2.633C42.394 1.789 43.605 1.789 43.926 2.633L45.996 8.367C46.0682 8.55379 46.1953 8.71428 46.3607 8.8273C46.526 8.94031 46.7217 9.00053 46.922 9H52.009C52.949 9 53.359 10.17 52.62 10.743L49 14C48.8378 14.1247 48.7193 14.2975 48.6614 14.4937C48.6036 14.6898 48.6094 14.8993 48.678 15.092L50 20.695C50.322 21.595 49.28 22.368 48.492 21.814L43.575 18.694C43.4066 18.5757 43.2058 18.5122 43 18.5122C42.7941 18.5122 42.5933 18.5757 42.425 18.694L37.508 21.814C36.721 22.368 35.678 21.594 36 20.695L37.322 15.092C37.3905 14.8993 37.3963 14.6898 37.3385 14.4937C37.2806 14.2975 37.1621 14.1247 37 14L33.38 10.743C32.64 10.17 33.052 9 33.99 9H39.077C39.2772 9.00067 39.473 8.9405 39.6384 8.82747C39.8037 8.71444 39.9309 8.55387 40.003 8.367L42.073 2.633H42.074Z" stroke="white" stroke-width="2" stroke-linecap="round" stroke-linejoin="round"/>
<path d="M73.074 2.633C73.394 1.789 74.605 1.789 74.926 2.633L76.996 8.367C77.0682 8.55379 77.1953 8.71428 77.3607 8.8273C77.526 8.94031 77.7217 9.00053 77.922 9H83.009C83.949 9 84.359 10.17 83.62 10.743L80 14C79.8378 14.1247 79.7193 14.2975 79.6614 14.4937C79.6036 14.6898 79.6094 14.8993 79.678 15.092L81 20.695C81.322 21.595 80.28 22.368 79.492 21.814L74.575 18.694C74.4066 18.5757 74.2058 18.5122 74 18.5122C73.7941 18.5122 73.5933 18.5757 73.425 18.694L68.508 21.814C67.721 22.368 66.678 21.594 67 20.695L68.322 15.092C68.3905 14.8993 68.3963 14.6898 68.3385 14.4937C68.2806 14.2975 68.1621 14.1247 68 14L64.38 10.743C63.64 10.17 64.052 9 64.99 9H70.077C70.2772 9.00067 70.473 8.9405 70.6384 8.82747C70.8037 8.71444 70.9309 8.55387 71.003 8.367L73.073 2.633H73.074Z" stroke="white" stroke-width="2" stroke-linecap="round" stroke-linejoin="round"/>
<g clip-path="url(#clip0_18_33)">
<path d="M104.074 2.633C104.394 1.789 105.605 1.789 105.926 2.633L107.996 8.367C108.068 8.55379 108.195 8.71428 108.361 8.8273C108.526 8.94031 108.722 9.00053 108.922 9H114.009C114.949 9 115.359 10.17 114.62 10.743L111 14C110.838 14.1247 110.719 14.2975 110.661 14.4937C110.604 14.6898 110.609 14.8993 110.678 15.092L112 20.695C112.322 21.595 111.28 22.368 110.492 21.814L105.575 18.694C105.407 18.5757 105.206 18.5122 105 18.5122C104.794 18.5122 104.593 18.5757 104.425 18.694L99.508 21.814C98.721 22.368 97.678 21.594 98 20.695L99.322 15.092C99.3905 14.8993 99.3963 14.6898 99.3385 14.4937C99.2806 14.2975 99.1621 14.1247 99 14L95.38 10.743C94.64 10.17 95.052 9 95.99 9H101.077C101.277 9.00067 101.473 8.9405 101.638 8.82747C101.804 8.71444 101.931 8.55387 102.003 8.367L104.073 2.633H104.074Z" stroke="white" stroke-width="2" stroke-linecap="round" stroke-linejoin="round"/>
<g clip-path="url(#clip1_18_33)">
<path d="M104.074 2.633C104.394 1.789 105.605 1.789 105.926 2.633L107.996 8.367C108.068 8.55379 108.195 8.71428 108.361 8.8273C108.526 8.94031 108.722 9.00053 108.922 9H114.009C114.949 9 115.359 10.17 114.62 10.743L111 14C110.838 14.1247 110.719 14.2975 110.661 14.4937C110.604 14.6898 110.609 14.8993 110.678 15.092L112 20.695C112.322 21.595 111.28 22.368 110.492 21.814L105.575 18.694C105.407 18.5757 105.206 18.5122 105 18.5122C104.794 18.5122 104.593 18.5757 104.425 18.694L99.508 21.814C98.721 22.368 97.678 21.594 98 20.695L99.322 15.092C99.3905 14.8993 99.3963 14.6898 99.3385 14.4937C99.2806 14.2975 99.1621 14.1247 99 14L95.38 10.743C94.64 10.17 95.052 9 95.99 9H101.077C101.277 9.00067 101.473 8.9405 101.638 8.82747C101.804 8.71444 101.931 8.55387 102.003 8.367L104.073 2.633H104.074Z" stroke="white" stroke-width="2" stroke-linecap="round" stroke-linejoin="round"/>
<path d="M104.074 2.633C104.394 1.789 105.605 1.789 105.926 2.633L107.996 8.367C108.068 8.55379 108.195 8.71428 108.361 8.8273C108.526 8.94031 108.722 9.00053 108.922 9H114.009C114.949 9 115.359 10.17 114.62 10.743L111 14C110.838 14.1247 110.719 14.2975 110.661 14.4937C110.604 14.6898 110.609 14.8993 110.678 15.092L112 20.695C112.322 21.595 111.28 22.368 110.492 21.814L105.575 18.694C105.407 18.5757 105.206 18.5122 105 18.5122C104.794 18.5122 104.593 18.5757 104.425 18.694L99.508 21.814C98.721 22.368 97.678 21.594 98 20.695L99.322 15.092C99.3905 14.8993 99.3963 14.6898 99.3385 14.4937C99.2806 14.2975 99.1621 14.1247 99 14L95.38 10.743C94.64 10.17 95.052 9 95.99 9H101.077C101.277 9.00067 101.473 8.9405 101.638 8.82747C101.804 8.71444 101.931 8.55387 102.003 8.367L104.073 2.633H104.074Z" stroke="white" stroke-width="2" stroke-linecap="round" stroke-linejoin="round"/>
</g>
</g>
<path d="M135.074 2.633C135.394 1.789 136.605 1.789 136.926 2.633L138.996 8.367C139.068 8.55379 139.195 8.71428 139.361 8.8273C139.526 8.94031 139.722 9.00053 139.922 9H145.009C145.949 9 146.359 10.17 145.62 10.743L142 14C141.838 14.1247 141.719 14.2975 141.661 14.4937C141.604 14.6898 141.609 14.8993 141.678 15.092L143 20.695C143.322 21.595 142.28 22.368 141.492 21.814L136.575 18.694C136.407 18.5757 136.206 18.5122 136 18.5122C135.794 18.5122 135.593 18.5757 135.425 18.694L130.508 21.814C129.721 22.368 128.678 21.594 129 20.695L130.322 15.092C130.391 14.8993 130.396 14.6898 130.338 14.4937C130.281 14.2975 130.162 14.1247 130 14L126.38 10.743C125.64 10.17 126.052 9 126.99 9H132.077C132.277 9.00067 132.473 8.9405 132.638 8.82747C132.804 8.71444 132.931 8.55387 133.003 8.367L135.073 2.633H135.074Z" stroke="white" stroke-width="2" stroke-linecap="round" stroke-linejoin="round"/>
<defs>
<clipPath id="clip0_18_33">
<rect width="24" height="24" fill="white" transform="translate(93)"/>
</clipPath>
<clipPath id="clip1_18_33">
<rect width="24" height="24" fill="white" transform="translate(93)"/>
</clipPath>
</defs>
</svg>
