<svg width="65" height="67" viewBox="0 0 65 67" fill="none" xmlns="http://www.w3.org/2000/svg">
<path d="M36.4285 14.4375C36.4285 12.5707 34.8964 11.0625 32.9999 11.0625C31.1035 11.0625 29.5714 12.5707 29.5714 14.4375V29.625H14.1428C12.2464 29.625 10.7142 31.1332 10.7142 33C10.7142 34.8668 12.2464 36.375 14.1428 36.375H29.5714V51.5625C29.5714 53.4293 31.1035 54.9375 32.9999 54.9375C34.8964 54.9375 36.4285 53.4293 36.4285 51.5625V36.375H51.8571C53.7535 36.375 55.2857 34.8668 55.2857 33C55.2857 31.1332 53.7535 29.625 51.8571 29.625H36.4285V14.4375Z" fill="#F8F8F8"/>
</svg>
